<svg width="1312" height="138" viewBox="0 0 1312 138" fill="none" xmlns="http://www.w3.org/2000/svg">
<path fill-rule="evenodd" clip-rule="evenodd" d="M0 0.390625H43.0719V42.0943H86.1432V83.7973H129.215V125.501H0V0.390625Z" fill="white"/>
<path d="M299.114 135.666L343.945 9.83644H374.646L419.478 135.666H393.66L384.415 108.642H334.176L324.756 135.666H299.114ZM340.979 88.3745H377.612L355.981 25.7129H362.61L340.979 88.3745Z" fill="white"/>
<path d="M431.348 135.666V9.83644H455.072V115.398H510.719V135.666H431.348Z" fill="white"/>
<path d="M523.565 135.666V9.83644H578.34C586.945 9.83644 594.272 11.3002 600.319 14.2278C606.483 17.0428 611.193 21.0964 614.449 26.3885C617.821 31.5681 619.508 37.8737 619.508 45.3052C619.508 51.0478 617.879 56.4526 614.623 61.5195C611.483 66.4739 606.425 70.5838 599.447 73.8492V63.2085C605.843 65.5731 610.902 68.5007 614.623 71.9913C618.345 75.4818 620.961 79.3665 622.473 83.6453C623.985 87.9241 624.741 92.428 624.741 97.1572C624.741 109.205 620.612 118.664 612.356 125.532C604.215 132.288 592.876 135.666 578.34 135.666H523.565ZM547.289 115.398H580.782C586.945 115.398 591.83 113.766 595.435 110.5C599.156 107.122 601.017 102.675 601.017 97.1572C601.017 91.6398 599.156 87.1922 595.435 83.8142C591.83 80.4362 586.945 78.7472 580.782 78.7472H547.289V115.398ZM547.289 58.6482H579.561C584.445 58.6482 588.341 57.2971 591.248 54.5947C594.156 51.7797 595.609 48.1765 595.609 43.7851C595.609 39.3938 594.156 35.9032 591.248 33.3134C588.341 30.7236 584.445 29.4287 579.561 29.4287H547.289V58.6482Z" fill="white"/>
<path d="M630.884 135.666L675.715 9.83644H706.417L751.248 135.666H725.43L716.185 108.642H665.946L656.526 135.666H630.884ZM672.75 88.3745H709.382L687.751 25.7129H694.38L672.75 88.3745Z" fill="white"/>
<path d="M777.513 135.666V30.1043H743.846V9.83644H834.555V30.1043H801.411V135.666H777.513Z" fill="white"/>
<path d="M846.553 135.666V9.83644H894.873C903.711 9.83644 911.503 11.4128 918.248 14.5656C925.109 17.6058 930.459 22.1098 934.296 28.0775C938.134 33.9327 940.053 41.0827 940.053 49.5277C940.053 58.1978 937.901 65.5731 933.599 71.6535C929.412 77.7338 923.714 82.2378 916.503 85.1654L946.333 135.666H919.469L887.546 80.4362L902.897 89.2189H870.277V135.666H846.553ZM870.277 68.9511H895.222C899.524 68.9511 903.246 68.1629 906.386 66.5865C909.526 64.8975 911.968 62.5892 913.712 59.6616C915.457 56.7341 916.329 53.3561 916.329 49.5277C916.329 45.5867 915.457 42.2087 913.712 39.3938C911.968 36.4662 909.526 34.2142 906.386 32.6378C903.246 30.9488 899.524 30.1043 895.222 30.1043H870.277V68.9511Z" fill="white"/>
<path d="M1023.38 137.693C1013.85 137.693 1004.95 136.06 996.694 132.795C988.437 129.529 981.227 124.969 975.063 119.114C968.9 113.259 964.074 106.39 960.585 98.5084C957.212 90.5138 955.526 81.9 955.526 72.6669C955.526 63.3211 957.212 54.7073 960.585 46.8253C963.957 38.9434 968.725 32.0748 974.889 26.2197C981.052 20.3645 988.263 15.8605 996.519 12.7077C1004.78 9.44235 1013.73 7.80966 1023.38 7.80966C1033.04 7.80966 1041.99 9.44235 1050.25 12.7077C1058.5 15.9731 1065.71 20.5334 1071.88 26.3885C1078.04 32.1311 1082.81 38.9434 1086.18 46.8253C1089.67 54.7073 1091.42 63.3211 1091.42 72.6669C1091.42 81.9 1089.67 90.5138 1086.18 98.5084C1082.69 106.39 1077.87 113.259 1071.7 119.114C1065.54 124.969 1058.33 129.529 1050.07 132.795C1041.93 136.06 1033.04 137.693 1023.38 137.693ZM1023.38 116.749C1029.78 116.749 1035.65 115.68 1041 113.54C1046.35 111.288 1051 108.192 1054.96 104.251C1059.03 100.31 1062.11 95.6371 1064.2 90.2323C1066.41 84.8276 1067.52 78.9724 1067.52 72.6669C1067.52 66.3613 1066.41 60.5624 1064.2 55.2703C1062.11 49.8655 1059.03 45.1926 1054.96 41.2517C1051 37.1981 1046.35 34.1016 1041 31.9622C1035.65 29.8228 1029.78 28.7531 1023.38 28.7531C1017.1 28.7531 1011.29 29.8228 1005.94 31.9622C1000.59 34.1016 995.88 37.1981 991.81 41.2517C987.856 45.1926 984.774 49.8655 982.564 55.2703C980.355 60.5624 979.25 66.3613 979.25 72.6669C979.25 78.9724 980.355 84.8276 982.564 90.2323C984.774 95.6371 987.856 100.31 991.81 104.251C995.88 108.192 1000.59 111.288 1005.94 113.54C1011.29 115.68 1017.1 116.749 1023.38 116.749Z" fill="white"/>
<path d="M1156.43 137.693C1148.17 137.693 1140.5 136.229 1133.41 133.302C1126.43 130.374 1120.38 126.32 1115.26 121.141C1110.26 115.849 1106.6 109.712 1104.27 102.731L1123.99 94.4548C1127.13 101.661 1131.66 107.347 1137.59 111.514C1143.52 115.567 1150.21 117.594 1157.65 117.594C1161.84 117.594 1165.44 116.975 1168.47 115.736C1171.61 114.385 1173.99 112.583 1175.62 110.331C1177.36 108.079 1178.24 105.377 1178.24 102.224C1178.24 98.5084 1177.07 95.4682 1174.75 93.1036C1172.54 90.6264 1169.17 88.7123 1164.63 87.3611L1139.69 79.5917C1129.57 76.5515 1121.95 71.9913 1116.83 65.9109C1111.72 59.8305 1109.16 52.6805 1109.16 44.4607C1109.16 37.2544 1110.96 30.8925 1114.57 25.3751C1118.29 19.8578 1123.4 15.579 1129.92 12.5388C1136.55 9.38605 1144.1 7.80966 1152.59 7.80966C1160.39 7.80966 1167.54 9.16085 1174.05 11.8632C1180.56 14.453 1186.14 18.1125 1190.8 22.8417C1195.56 27.4582 1199.11 32.9193 1201.44 39.2249L1181.9 47.6698C1179.34 41.3643 1175.5 36.5225 1170.39 33.1445C1165.27 29.6539 1159.34 27.9086 1152.59 27.9086C1148.64 27.9086 1145.15 28.5842 1142.13 29.9354C1139.1 31.174 1136.72 32.9756 1134.98 35.3402C1133.35 37.5922 1132.53 40.2946 1132.53 43.4473C1132.53 46.9379 1133.7 50.0344 1136.02 52.7368C1138.35 55.3266 1141.9 57.3534 1146.66 58.8171L1170.56 66.0798C1180.91 69.3452 1188.65 73.8492 1193.76 79.5917C1199 85.3343 1201.61 92.428 1201.61 100.873C1201.61 108.079 1199.69 114.441 1195.86 119.959C1192.02 125.476 1186.73 129.811 1179.98 132.964C1173.24 136.117 1165.39 137.693 1156.43 137.693Z" fill="white"/>
<path d="M1266.82 137.693C1258.56 137.693 1250.89 136.229 1243.79 133.302C1236.82 130.374 1230.77 126.32 1225.65 121.141C1220.65 115.849 1216.99 109.712 1214.66 102.731L1234.37 94.4548C1237.51 101.661 1242.05 107.347 1247.98 111.514C1253.91 115.567 1260.6 117.594 1268.04 117.594C1272.23 117.594 1275.83 116.975 1278.86 115.736C1282 114.385 1284.38 112.583 1286.01 110.331C1287.75 108.079 1288.62 105.377 1288.62 102.224C1288.62 98.5084 1287.46 95.4682 1285.14 93.1036C1282.93 90.6264 1279.55 88.7123 1275.02 87.3611L1250.07 79.5917C1239.96 76.5515 1232.34 71.9913 1227.22 65.9109C1222.1 59.8305 1219.55 52.6805 1219.55 44.4607C1219.55 37.2544 1221.35 30.8925 1224.95 25.3751C1228.68 19.8578 1233.79 15.579 1240.3 12.5388C1246.93 9.38605 1254.49 7.80966 1262.98 7.80966C1270.77 7.80966 1277.93 9.16085 1284.44 11.8632C1290.95 14.453 1296.53 18.1125 1301.18 22.8417C1305.95 27.4582 1309.5 32.9193 1311.83 39.2249L1292.29 47.6698C1289.73 41.3643 1285.89 36.5225 1280.78 33.1445C1275.66 29.6539 1269.73 27.9086 1262.98 27.9086C1259.03 27.9086 1255.54 28.5842 1252.52 29.9354C1249.49 31.174 1247.11 32.9756 1245.36 35.3402C1243.74 37.5922 1242.92 40.2946 1242.92 43.4473C1242.92 46.9379 1244.08 50.0344 1246.41 52.7368C1248.74 55.3266 1252.28 57.3534 1257.05 58.8171L1280.95 66.0798C1291.3 69.3452 1299.03 73.8492 1304.15 79.5917C1309.38 85.3343 1312 92.428 1312 100.873C1312 108.079 1310.08 114.441 1306.24 119.959C1302.41 125.476 1297.11 129.811 1290.37 132.964C1283.62 136.117 1275.77 137.693 1266.82 137.693Z" fill="white"/>
</svg>
