<svg width="29" height="25" viewBox="0 0 29 25" fill="none" xmlns="http://www.w3.org/2000/svg">
<path d="M1.16663 12.5885C1.16663 7.56054 1.16663 5.04588 2.72929 3.48454C4.29196 1.92321 6.80529 1.92188 11.8333 1.92188H17.1666C22.1946 1.92188 24.7093 1.92187 26.2706 3.48454C27.832 5.04721 27.8333 7.56054 27.8333 12.5885C27.8333 17.6165 27.8333 20.1312 26.2706 21.6925C24.708 23.2539 22.1946 23.2552 17.1666 23.2552H11.8333C6.80529 23.2552 4.29063 23.2552 2.72929 21.6925C1.16796 20.1299 1.16663 17.6165 1.16663 12.5885Z" stroke="#34C759" stroke-width="2"/>
<path d="M11.8333 17.9219H6.49996M17.1666 17.9219H15.1666M1.16663 9.92188H27.8333" stroke="#34C759" stroke-width="2" stroke-linecap="round"/>
</svg>
