<svg width="25" height="27" viewBox="0 0 25 27" fill="none" xmlns="http://www.w3.org/2000/svg">
<path d="M17.697 17.6609C18.4532 17.2547 19.3188 17.0234 20.2407 17.0234H20.2438C20.3376 17.0234 20.3813 16.9109 20.3126 16.8484C19.3539 15.9881 18.2587 15.2932 17.072 14.7922C17.0595 14.7859 17.047 14.7828 17.0345 14.7766C18.9751 13.3672 20.2376 11.0766 20.2376 8.49219C20.2376 4.21094 16.7751 0.742188 12.5032 0.742188C8.23133 0.742188 4.77195 4.21094 4.77195 8.49219C4.77195 11.0766 6.03445 13.3672 7.9782 14.7766C7.9657 14.7828 7.9532 14.7859 7.9407 14.7922C6.54383 15.3828 5.2907 16.2297 4.21258 17.3109C3.14067 18.3809 2.28729 19.6493 1.70008 21.0453C1.12231 22.4124 0.810489 23.8771 0.781328 25.3609C0.780494 25.3943 0.786344 25.4275 0.798534 25.4585C0.810724 25.4896 0.829006 25.5179 0.852304 25.5418C0.875603 25.5656 0.903445 25.5846 0.934191 25.5976C0.964937 25.6105 0.997965 25.6172 1.03133 25.6172H2.9032C3.03758 25.6172 3.15008 25.5078 3.1532 25.3734C3.2157 22.9609 4.18133 20.7016 5.8907 18.9891C7.65633 17.2172 10.0063 16.2422 12.5063 16.2422C14.2782 16.2422 15.9782 16.7328 17.4438 17.6516C17.4815 17.6752 17.5247 17.6885 17.5691 17.6902C17.6136 17.6918 17.6577 17.6817 17.697 17.6609ZM12.5063 13.8672C11.0751 13.8672 9.7282 13.3078 8.71258 12.2922C8.21287 11.7938 7.81673 11.2014 7.54695 10.5492C7.27718 9.89707 7.13911 9.19796 7.1407 8.49219C7.1407 7.05781 7.70008 5.70781 8.71258 4.69219C9.72508 3.67656 11.072 3.11719 12.5063 3.11719C13.9407 3.11719 15.2845 3.67656 16.3001 4.69219C16.7998 5.1906 17.1959 5.78295 17.4657 6.43513C17.7355 7.08731 17.8735 7.78642 17.872 8.49219C17.872 9.92656 17.3126 11.2766 16.3001 12.2922C15.2845 13.3078 13.9376 13.8672 12.5063 13.8672ZM24.0001 21.3047H21.3751V18.6797C21.3751 18.5422 21.2626 18.4297 21.1251 18.4297H19.3751C19.2376 18.4297 19.1251 18.5422 19.1251 18.6797V21.3047H16.5001C16.3626 21.3047 16.2501 21.4172 16.2501 21.5547V23.3047C16.2501 23.4422 16.3626 23.5547 16.5001 23.5547H19.1251V26.1797C19.1251 26.3172 19.2376 26.4297 19.3751 26.4297H21.1251C21.2626 26.4297 21.3751 26.3172 21.3751 26.1797V23.5547H24.0001C24.1376 23.5547 24.2501 23.4422 24.2501 23.3047V21.5547C24.2501 21.4172 24.1376 21.3047 24.0001 21.3047Z" fill="#34C759"/>
</svg>
