<svg width="26" height="29" viewBox="0 0 26 29" fill="none" xmlns="http://www.w3.org/2000/svg">
<path d="M5.83331 8.09023V7.3969C5.83331 4.53556 5.83331 3.1049 6.75331 2.30756C7.67331 1.51023 9.08798 1.7129 11.9213 2.1169L17.6306 2.9329C20.9066 3.4009 22.544 3.63423 23.5213 4.76223C24.4986 5.89023 24.5 7.5449 24.5 10.8529V18.3089C24.5 21.6169 24.5 23.2716 23.5213 24.3996C22.544 25.5276 20.9066 25.7609 17.632 26.2289L11.9213 27.0449C9.08798 27.4489 7.67198 27.6516 6.75331 26.8542C5.83465 26.0569 5.83331 24.6262 5.83331 21.7649V21.3356" stroke="#34C759" stroke-width="2"/>
<path d="M17.8333 14.5781L18.8733 13.7448L19.54 14.5781L18.8733 15.4115L17.8333 14.5781ZM1.83333 15.9115C1.47971 15.9115 1.14057 15.771 0.890524 15.5209C0.640476 15.2709 0.5 14.9317 0.5 14.5781C0.5 14.2245 0.640476 13.8854 0.890524 13.6353C1.14057 13.3853 1.47971 13.2448 1.83333 13.2448V15.9115ZM13.54 7.07812L18.8733 13.7448L16.7933 15.4115L11.46 8.74479L13.54 7.07812ZM18.8733 15.4115L13.54 22.0781L11.46 20.4115L16.7933 13.7448L18.8733 15.4115ZM17.8333 15.9115H1.83333V13.2448H17.8333V15.9115Z" fill="#34C759"/>
</svg>
