<svg width="29" height="29" viewBox="0 0 29 29" fill="none" xmlns="http://www.w3.org/2000/svg">
<path d="M21.1987 2.62897L19.9254 2.28897C16.3254 1.32897 14.5254 0.850306 13.1081 1.66497C11.6894 2.47831 11.2067 4.26897 10.2414 7.84764L8.87873 12.9103C7.9134 16.4903 7.43073 18.2796 8.25073 19.6903C9.0694 21.0996 10.8694 21.5796 14.4694 22.5383L15.7414 22.8783C19.3414 23.8383 21.1414 24.317 22.5601 23.5023C23.9774 22.689 24.4601 20.8983 25.4241 17.3196L26.7881 12.257C27.7534 8.67697 28.2347 6.88764 27.4161 5.47697C26.5974 4.06631 24.8001 3.58764 21.1987 2.62897Z" stroke="#34C759" stroke-width="2" stroke-linecap="round" stroke-linejoin="round"/>
<path d="M14.5 26.51L13.2307 26.8567C9.63866 27.834 7.84399 28.3233 6.42799 27.4927C5.01466 26.6633 4.53199 24.8393 3.57066 21.1887L2.20933 16.026C1.24666 12.3767 0.765328 10.5513 1.58266 9.11401C2.28933 7.87001 3.83333 7.91534 5.83333 7.91534M20.972 8.49268C20.972 9.57801 20.0867 10.458 18.9947 10.458C17.904 10.458 17.0187 9.57801 17.0187 8.49268C17.0187 7.40734 17.904 6.52734 18.9947 6.52734C20.088 6.52734 20.972 7.40734 20.972 8.49268Z" stroke="#34C759" stroke-width="2" stroke-linecap="round" stroke-linejoin="round"/>
</svg>
