<svg width="25" height="25" viewBox="0 0 25 25" fill="none" xmlns="http://www.w3.org/2000/svg">
<path d="M11.7381 3.44531H4.88099C4.07271 3.44531 3.29754 3.7664 2.726 4.33794C2.15446 4.90948 1.83337 5.68465 1.83337 6.49293V20.2072C1.83337 21.0155 2.15446 21.7907 2.726 22.3622C3.29754 22.9337 4.07271 23.2548 4.88099 23.2548H20.1191C20.9274 23.2548 21.7025 22.9337 22.2741 22.3622C22.8456 21.7907 23.1667 21.0155 23.1667 20.2072V13.3501" stroke="#34C759" stroke-width="2" stroke-linecap="round" stroke-linejoin="round"/>
<path d="M20.1191 4.96672L21.5713 6.49053M23.1667 1.86882C23.5736 2.28849 23.7991 2.85147 23.7942 3.43604C23.7894 4.0206 23.5546 4.57977 23.1408 4.99263L12.5 15.6334L7.92859 17.1572L9.4524 12.5858L20.0993 1.84901C20.4737 1.47214 20.9745 1.24738 21.505 1.21811C22.0355 1.18884 22.558 1.35715 22.9716 1.69053L23.1667 1.86882Z" stroke="#34C759" stroke-width="2" stroke-linecap="round" stroke-linejoin="round"/>
</svg>
