<svg width="29" height="25" viewBox="0 0 29 25" fill="none" xmlns="http://www.w3.org/2000/svg">
<path d="M17.1667 11.2552C17.1667 10.9016 17.3072 10.5624 17.5572 10.3124C17.8073 10.0624 18.1464 9.92188 18.5 9.92188C18.8536 9.92188 19.1928 10.0624 19.4428 10.3124C19.6929 10.5624 19.8334 10.9016 19.8334 11.2552V13.9219C19.8334 14.2755 19.6929 14.6146 19.4428 14.8647C19.1928 15.1147 18.8536 15.2552 18.5 15.2552C18.1464 15.2552 17.8073 15.1147 17.5572 14.8647C17.3072 14.6146 17.1667 14.2755 17.1667 13.9219V11.2552Z" stroke="#34C759" stroke-width="2"/>
<path d="M17.1854 19.2552L18.1854 19.2579V19.2552H17.1854ZM17.1854 5.92188H18.1854V5.91921L17.1854 5.92188ZM18.1774 21.9285L18.1854 19.2579L16.1854 19.2525L16.1774 21.9232L18.1774 21.9285ZM18.5214 18.9219C18.7094 18.9219 18.8587 19.0739 18.8587 19.2552H20.8587C20.8587 17.9645 19.8094 16.9219 18.5214 16.9219V18.9219ZM18.5214 16.9219C17.2334 16.9219 16.1854 17.9645 16.1854 19.2552H18.1854C18.1854 19.0739 18.3334 18.9219 18.5214 18.9219V16.9219ZM11.8267 2.92188H16.5067V0.921877H11.8267V2.92188ZM15.844 22.2552H11.8267V24.2552H15.844V22.2552ZM11.8267 22.2552C9.2787 22.2552 7.4667 22.2525 6.09337 22.0685C4.7467 21.8885 3.97203 21.5499 3.40537 20.9845L1.99337 22.4019C2.99337 23.3992 4.2627 23.8419 5.82803 24.0525C7.3667 24.2592 9.3347 24.2565 11.828 24.2565L11.8267 22.2552ZM11.8267 0.921877C9.33337 0.921877 7.36537 0.91921 5.8267 1.12588C4.26137 1.33654 2.99337 1.77921 1.99337 2.77654L3.4067 4.19254C3.97203 3.62721 4.74803 3.28854 6.09337 3.10854C7.4667 2.92454 9.2787 2.92188 11.8267 2.92188V0.921877ZM1.94937 11.1339C2.46403 11.4205 2.8067 11.9659 2.8067 12.5885H4.8067C4.8066 11.9359 4.6323 11.2951 4.30181 10.7324C3.97132 10.1696 3.49662 9.70522 2.9267 9.38721L1.94937 11.1339ZM2.18003 8.61521C2.28403 6.14054 2.62137 4.97388 3.4067 4.19254L1.99337 2.77654C0.620035 4.14721 0.286702 6.02854 0.180035 8.53254L2.18003 8.61521ZM2.8067 12.5885C2.8067 13.2112 2.46403 13.7565 1.94937 14.0445L2.92537 15.7912C3.49573 15.4733 3.97083 15.0088 4.30158 14.4457C4.63232 13.8827 4.8067 13.2415 4.8067 12.5885H2.8067ZM0.181368 16.6445C0.288035 19.1459 0.621368 21.0312 1.99337 22.4005L3.4067 20.9845C2.62137 20.2032 2.28403 19.0352 2.18003 16.5605L0.181368 16.6445ZM26.1934 12.5885C26.1934 11.9659 26.536 11.4205 27.0507 11.1339L26.0747 9.38721C25.5045 9.70505 25.0296 10.1693 24.6988 10.7321C24.3681 11.2949 24.1936 11.9358 24.1934 12.5885H26.1934ZM28.8187 8.53254C28.712 6.03121 28.3787 4.14588 27.0067 2.77654L25.5934 4.19254C26.3774 4.97388 26.716 6.14188 26.82 8.61654L28.8187 8.53254ZM27.0507 14.0445C26.791 13.9003 26.5746 13.6892 26.4238 13.4332C26.2731 13.1772 26.1935 12.8856 26.1934 12.5885H24.1934C24.1934 13.9672 24.9547 15.1645 26.0747 15.7899L27.0507 14.0445ZM26.82 16.5605C26.716 19.0352 26.3787 20.2032 25.5934 20.9845L27.0067 22.4005C28.38 21.0312 28.7134 19.1472 28.8187 16.6445L26.82 16.5605ZM26.0747 15.7899C26.4534 16.0019 26.7014 16.1405 26.868 16.2459C26.9507 16.2979 26.988 16.3259 26.9987 16.3339C27.0174 16.3499 26.9494 16.3019 26.8854 16.1872L28.632 15.2099C28.5397 15.0499 28.4181 14.9087 28.2734 14.7939C28.1658 14.7066 28.0527 14.6265 27.9347 14.5539C27.712 14.4125 27.4067 14.2432 27.0507 14.0432L26.0747 15.7899ZM28.8187 16.6445C28.828 16.4165 28.8387 16.1805 28.8307 15.9832C28.8251 15.7134 28.7567 15.4486 28.6307 15.2099L26.8854 16.1859C26.8187 16.0659 26.828 15.9832 26.832 16.0712C26.8338 16.1068 26.8338 16.1663 26.832 16.2499L26.82 16.5605L28.8187 16.6445ZM27.0507 11.1339C27.4067 10.9339 27.712 10.7645 27.9347 10.6232C28.0517 10.5491 28.1647 10.469 28.2734 10.3832C28.4176 10.2682 28.5388 10.1271 28.6307 9.96721L26.8854 8.99121C26.9494 8.87521 27.0174 8.82721 26.9974 8.84321C26.956 8.87505 26.9128 8.90443 26.868 8.93121C26.7014 9.03788 26.4547 9.17521 26.0747 9.38721L27.0507 11.1339ZM26.82 8.61654L26.832 8.92588C26.8338 9.00943 26.8338 9.06899 26.832 9.10454C26.828 9.19254 26.8187 9.10988 26.8854 8.98988L28.632 9.96588C28.7575 9.72707 28.8256 9.46227 28.8307 9.19254C28.8354 8.97201 28.8309 8.75138 28.8174 8.53121L26.82 8.61654ZM1.94937 14.0432C1.59337 14.2432 1.28803 14.4112 1.06537 14.5525C0.947404 14.6251 0.834277 14.7053 0.726702 14.7925C0.582495 14.9075 0.461265 15.05 0.369368 15.2099L2.1147 16.1845C2.0507 16.3005 1.9827 16.3485 2.00137 16.3325C2.01337 16.3232 2.04937 16.2965 2.13203 16.2445C2.2987 16.1379 2.54537 16.0005 2.92537 15.7885L1.94937 14.0432ZM2.18003 16.5592L2.16803 16.2485C2.16604 16.189 2.16604 16.1294 2.16803 16.0699C2.17203 15.9819 2.18137 16.0645 2.1147 16.1845L0.368035 15.2085C0.242535 15.4473 0.174508 15.7122 0.169368 15.9819C0.161368 16.1792 0.172035 16.4152 0.182702 16.6432L2.18003 16.5592ZM2.92537 9.38588C2.5467 9.17388 2.2987 9.03521 2.13203 8.92988C2.08678 8.90314 2.04315 8.87376 2.00137 8.84188C1.9827 8.82588 2.0507 8.87388 2.1147 8.98854L0.368035 9.96588C0.480035 10.1632 0.628035 10.2992 0.726702 10.3819C0.833368 10.4699 0.952035 10.5499 1.06537 10.6219C1.28803 10.7632 1.59337 10.9325 1.94937 11.1325L2.92537 9.38588ZM0.180035 8.53254C0.170702 8.76054 0.160035 8.99654 0.168035 9.19388C0.177368 9.39388 0.208035 9.68321 0.368035 9.96721L2.1147 8.99121C2.18137 9.11121 2.1707 9.19388 2.1667 9.10588C2.16471 9.04634 2.16471 8.98675 2.1667 8.92721L2.1787 8.61654L0.180035 8.53254ZM18.184 5.91921L18.1734 2.58321L16.1747 2.58988L16.184 5.92454L18.184 5.91921ZM18.52 6.25521C18.476 6.25556 18.4324 6.2472 18.3917 6.23061C18.3509 6.21401 18.3138 6.18951 18.2826 6.15853C18.2514 6.12754 18.2266 6.09067 18.2097 6.05006C18.1927 6.00944 18.184 5.96588 18.184 5.92188H16.184C16.184 7.21254 17.232 8.25521 18.52 8.25521V6.25521ZM18.86 5.92188C18.86 6.10321 18.7107 6.25521 18.5227 6.25521V8.25521C19.8107 8.25521 20.86 7.21254 20.86 5.92188H18.86ZM18.86 2.60988V5.92188H20.86V2.60988H18.86ZM20.5134 2.94721C23.4307 3.02188 24.7387 3.33654 25.596 4.19254L27.0094 2.77654C25.5254 1.29654 23.4267 1.02188 20.564 0.94721L20.5134 2.94721ZM20.86 2.60988C20.86 2.79654 20.7054 2.95121 20.5134 2.94721L20.564 0.94721C20.3422 0.941695 20.1216 0.980626 19.9151 1.06171C19.7085 1.14279 19.5203 1.26439 19.3615 1.41934C19.2027 1.57428 19.0766 1.75944 18.9904 1.96391C18.9043 2.16837 18.86 2.38801 18.86 2.60988H20.86ZM16.5067 2.92188C16.4185 2.92152 16.3354 2.88625 16.2732 2.82378C16.211 2.7613 16.176 2.67672 16.176 2.58854L18.176 2.58321C18.1746 2.14211 17.9984 1.71955 17.686 1.40815C17.3736 1.09674 16.9505 0.921874 16.5094 0.921877L16.5067 2.92188ZM21.2534 24.2072C23.7534 24.1005 25.6387 23.7672 27.008 22.4005L25.5934 20.9845C24.812 21.7659 23.6427 22.1045 21.1707 22.2085L21.2534 24.2072ZM18.86 19.2552V21.8912H20.86V19.2552H18.86ZM16.1787 21.9219C16.1787 22.0832 16.1787 22.2072 16.1747 22.3125C16.172 22.4192 16.1667 22.4805 16.1614 22.5192C16.156 22.5579 16.1547 22.5445 16.1694 22.5059C16.1952 22.449 16.2309 22.3971 16.2747 22.3525L17.6867 23.7685C17.9437 23.5029 18.1042 23.1588 18.1427 22.7912C18.1787 22.5285 18.176 22.2139 18.1774 21.9285L16.1787 21.9219ZM15.844 24.2552C16.1294 24.2552 16.4454 24.2579 16.708 24.2219C17 24.1819 17.372 24.0819 17.6867 23.7685L16.2734 22.3525C16.3188 22.3089 16.3716 22.2737 16.4294 22.2485C16.4667 22.2325 16.48 22.2352 16.4427 22.2392C16.3736 22.2464 16.3042 22.2508 16.2347 22.2525C16.128 22.2552 16.004 22.2552 15.844 22.2552V24.2552ZM21.1707 22.2085C21.0107 22.2152 20.8867 22.2205 20.7814 22.2219C20.676 22.2232 20.6147 22.2219 20.5787 22.2179C20.5427 22.2139 20.5587 22.2112 20.5987 22.2272C20.648 22.2459 20.7054 22.2805 20.7574 22.3285L19.3734 23.7725C19.6987 24.0845 20.0787 24.1779 20.3827 24.2072C20.652 24.2339 20.968 24.2192 21.2534 24.2072L21.1707 22.2085ZM18.86 21.8912C18.86 22.1819 18.8574 22.5045 18.8947 22.7752C18.936 23.0765 19.044 23.4565 19.3734 23.7725L20.7574 22.3285C20.8107 22.3792 20.8454 22.4365 20.8667 22.4845C20.8827 22.5245 20.88 22.5379 20.876 22.5005C20.8688 22.4301 20.8643 22.3594 20.8627 22.2885C20.86 22.1819 20.86 22.0552 20.86 21.8912H18.86Z" fill="#34C759"/>
</svg>
