<?xml version="1.0" standalone="no"?>
<!DOCTYPE svg PUBLIC "-//W3C//DTD SVG 20010904//EN"
 "http://www.w3.org/TR/2001/REC-SVG-20010904/DTD/svg10.dtd">
<svg version="1.0" xmlns="http://www.w3.org/2000/svg"
 width="192.000000pt" height="38.000000pt" viewBox="0 0 192.000000 38.000000"
 preserveAspectRatio="xMidYMid meet">

<g transform="translate(0.000000,38.000000) scale(0.100000,-0.100000)"
fill="#000000" stroke="none">
<path d="M100 200 l0 -80 85 0 c84 0 85 0 85 25 0 21 -5 25 -30 25 -25 0 -30
4 -30 25 0 20 -5 25 -25 25 -21 0 -25 5 -25 30 0 27 -3 30 -30 30 l-30 0 0
-80z"/>
<path d="M526 198 c-14 -40 -26 -79 -26 -85 0 -20 18 -15 30 7 7 13 21 20 40
20 19 0 33 -7 40 -20 6 -11 17 -20 25 -20 8 0 15 1 15 3 0 1 -13 38 -29 82
-21 60 -33 81 -48 83 -16 2 -25 -10 -47 -70z m58 6 c11 -29 6 -44 -14 -44 -22
0 -23 3 -14 38 7 26 19 29 28 6z"/>
<path d="M670 186 l0 -86 50 0 c38 0 50 4 50 15 0 10 -11 15 -35 15 l-34 0 -3
67 c-2 42 -8 68 -15 71 -10 3 -13 -18 -13 -82z"/>
<path d="M790 185 l0 -85 44 0 c60 0 92 26 81 66 -4 16 -7 41 -6 56 3 33 -22
48 -78 48 l-41 0 0 -85z m88 38 c-2 -11 -14 -19 -31 -21 -22 -3 -27 1 -27 17
0 17 6 21 31 21 24 0 30 -4 27 -17z m1 -52 c23 -15 5 -41 -29 -41 -25 0 -30 4
-30 25 0 19 5 25 23 25 12 0 28 -4 36 -9z"/>
<path d="M985 260 c-6 -9 -55 -150 -55 -157 0 -2 6 -3 14 -3 8 0 18 9 21 20 9
28 71 28 80 0 6 -19 35 -29 35 -12 0 4 -12 42 -27 85 -20 55 -32 77 -45 77 -9
0 -20 -5 -23 -10z m38 -92 c-7 -13 -33 -9 -33 5 0 6 3 23 7 37 l7 25 12 -30
c7 -17 10 -33 7 -37z"/>
<path d="M1080 255 c0 -8 9 -15 20 -15 18 0 20 -7 20 -70 0 -56 3 -70 15 -70
12 0 15 14 15 70 0 63 2 70 20 70 11 0 20 7 20 15 0 12 -13 15 -55 15 -42 0
-55 -3 -55 -15z"/>
<path d="M1210 185 c0 -69 3 -85 15 -85 10 0 15 10 15 30 0 40 29 40 52 0 9
-17 24 -30 34 -30 14 0 14 4 -4 34 -18 30 -19 36 -6 47 21 17 17 56 -8 73 -12
9 -39 16 -60 16 l-38 0 0 -85z m85 30 c0 -14 -8 -21 -27 -23 -24 -3 -28 0 -28
23 0 23 4 26 28 23 19 -2 27 -9 27 -23z"/>
<path d="M1378 240 c-25 -26 -29 -36 -24 -63 8 -40 48 -77 86 -77 43 0 90 44
90 85 0 25 -8 40 -31 59 -42 36 -82 34 -121 -4z m106 -16 c21 -20 20 -58 0
-79 -25 -24 -75 -16 -93 16 -13 24 -13 29 2 53 20 30 66 35 91 10z"/>
<path d="M1570 250 c-32 -32 -24 -48 34 -76 21 -11 38 -23 38 -29 -1 -16 -32
-18 -58 -4 -33 17 -44 1 -15 -22 43 -35 106 -16 99 32 -2 16 -16 30 -42 44
-21 11 -38 25 -38 30 2 15 41 18 57 5 10 -8 15 -8 21 1 9 15 -23 39 -53 39
-13 0 -32 -9 -43 -20z"/>
<path d="M1715 254 c-27 -27 -14 -57 33 -79 23 -11 42 -25 42 -32 0 -16 -57
-18 -62 -2 -2 6 -12 10 -23 8 -18 -4 -18 -6 5 -27 29 -27 71 -29 93 -4 32 35
16 66 -40 81 -36 10 -44 41 -11 41 13 0 29 -5 36 -12 9 -9 15 -9 23 -1 8 8 4
15 -12 27 -30 20 -63 20 -84 0z"/>
</g>
</svg>
