<svg width="1440" height="414" viewBox="0 0 1440 414" fill="none" xmlns="http://www.w3.org/2000/svg">
<path fill-rule="evenodd" clip-rule="evenodd" d="M-1055.15 0H-922.459V128.48H-789.765V256.959H-657.069V385.439H-1055.15V0Z" fill="#F8F8F8"/>
<path d="M-133.647 416.756L4.46863 29.1006H99.0538L237.169 416.756H157.632L129.149 333.501H-25.6266L-54.6469 416.756H-133.647ZM-4.66724 271.06H108.19L41.5503 78.0128H61.9722L-4.66724 271.06Z" fill="#F8F8F8"/>
<path d="M273.74 416.756V29.1006H346.828V354.315H518.264V416.756H273.74Z" fill="#F8F8F8"/>
<path d="M557.842 416.756V29.1006H726.59C753.103 29.1006 775.674 33.6102 794.304 42.6295C813.293 51.3019 827.803 63.7901 837.835 80.0942C848.225 96.0514 853.42 115.478 853.42 138.373C853.42 156.064 848.404 172.715 838.373 188.325C828.699 203.589 813.114 216.251 791.618 226.31V193.529C811.323 200.814 826.908 209.833 838.373 220.587C849.837 231.34 857.899 243.308 862.556 256.49C867.214 269.672 869.542 283.548 869.542 298.118C869.542 335.236 856.824 364.375 831.386 385.535C806.307 406.349 771.375 416.756 726.59 416.756H557.842ZM630.93 354.315H734.114C753.103 354.315 768.15 349.285 779.257 339.225C790.722 328.818 796.454 315.116 796.454 298.118C796.454 281.12 790.722 267.418 779.257 257.011C768.15 246.604 753.103 241.4 734.114 241.4H630.93V354.315ZM630.93 179.48H730.352C745.4 179.48 757.402 175.317 766.359 166.991C775.316 158.319 779.794 147.218 779.794 133.689C779.794 120.161 775.316 109.407 766.359 101.428C757.402 93.4497 745.4 89.4604 730.352 89.4604H630.93V179.48Z" fill="#F8F8F8"/>
<path d="M888.468 416.756L1026.58 29.1006H1121.17L1259.28 416.756H1179.75L1151.26 333.501H996.488L967.468 416.756H888.468ZM1017.45 271.06H1130.3L1063.67 78.0128H1084.09L1017.45 271.06Z" fill="#F8F8F8"/>
<path d="M1340.2 416.756V91.5417H1236.48V29.1006H1515.94V91.5417H1413.83V416.756H1340.2Z" fill="#F8F8F8"/>
<path d="M1552.9 416.756V29.1006H1701.76C1728.99 29.1006 1753 33.9571 1773.78 43.6702C1794.92 53.0364 1811.4 66.9122 1823.22 85.2976C1835.04 103.336 1840.95 125.364 1840.95 151.381C1840.95 178.092 1834.33 200.814 1821.07 219.546C1808.17 238.278 1790.62 252.154 1768.4 261.173L1860.3 416.756H1777.54L1679.19 246.604L1726.48 273.662H1625.99V416.756H1552.9ZM1625.99 211.221H1702.84C1716.09 211.221 1727.56 208.792 1737.23 203.936C1746.91 198.732 1754.43 191.621 1759.8 182.602C1765.18 173.582 1767.87 163.176 1767.87 151.381C1767.87 139.24 1765.18 128.833 1759.8 120.161C1754.43 111.141 1746.91 104.203 1737.23 99.3469C1727.56 94.1435 1716.09 91.5417 1702.84 91.5417H1625.99V211.221Z" fill="#F8F8F8"/>
<path d="M2097.68 423C2068.3 423 2040.89 417.97 2015.45 407.91C1990.02 397.85 1967.8 383.801 1948.81 365.762C1929.82 347.724 1914.96 326.563 1904.21 302.28C1893.82 277.651 1888.62 251.113 1888.62 222.668C1888.62 193.876 1893.82 167.338 1904.21 143.056C1914.6 118.773 1929.29 97.6124 1948.28 79.5739C1967.26 61.5353 1989.48 47.6595 2014.92 37.9464C2040.35 27.8865 2067.94 22.8565 2097.68 22.8565C2127.41 22.8565 2155 27.8865 2180.44 37.9464C2205.88 48.0064 2228.09 62.0556 2247.08 80.0942C2266.07 97.7859 2280.76 118.773 2291.15 143.056C2301.9 167.338 2307.27 193.876 2307.27 222.668C2307.27 251.113 2301.9 277.651 2291.15 302.28C2280.4 326.563 2265.53 347.724 2246.54 365.762C2227.55 383.801 2205.34 397.85 2179.9 407.91C2154.82 417.97 2127.41 423 2097.68 423ZM2097.68 358.478C2117.38 358.478 2135.48 355.182 2151.96 348.591C2168.44 341.653 2182.77 332.113 2194.95 319.972C2207.49 307.831 2216.98 293.435 2223.43 276.784C2230.24 260.133 2233.64 242.094 2233.64 222.668C2233.64 203.242 2230.24 185.377 2223.43 169.073C2216.98 152.422 2207.49 138.026 2194.95 125.884C2182.77 113.396 2168.44 103.857 2151.96 97.2655C2135.48 90.6745 2117.38 87.379 2097.68 87.379C2078.33 87.379 2060.42 90.6745 2043.94 97.2655C2027.46 103.857 2012.95 113.396 2000.41 125.884C1988.22 138.026 1978.73 152.422 1971.92 169.073C1965.12 185.377 1961.71 203.242 1961.71 222.668C1961.71 242.094 1965.12 260.133 1971.92 276.784C1978.73 293.435 1988.22 307.831 2000.41 319.972C2012.95 332.113 2027.46 341.653 2043.94 348.591C2060.42 355.182 2078.33 358.478 2097.68 358.478Z" fill="#F8F8F8"/>
<path d="M2507.57 423C2482.13 423 2458.49 418.49 2436.63 409.471C2415.14 400.452 2396.51 387.964 2380.74 372.006C2365.34 355.702 2354.05 336.797 2346.89 315.289L2407.61 289.792C2417.29 311.994 2431.26 329.512 2449.53 342.347C2467.8 354.835 2488.4 361.079 2511.33 361.079C2524.23 361.079 2535.34 359.171 2544.65 355.355C2554.33 351.193 2561.67 345.642 2566.69 338.704C2572.06 331.767 2574.75 323.441 2574.75 313.728C2574.75 302.281 2571.17 292.914 2564 285.63C2557.19 277.998 2546.8 272.101 2532.83 267.938L2455.98 244.002C2424.81 234.636 2401.34 220.587 2385.58 201.854C2369.81 183.122 2361.93 161.094 2361.93 135.771C2361.93 113.57 2367.49 93.97 2378.59 76.9721C2390.06 59.9743 2405.82 46.7923 2425.89 37.4261C2446.31 27.713 2469.59 22.8565 2495.75 22.8565C2519.75 22.8565 2541.79 27.0193 2561.85 35.3447C2581.91 43.3233 2599.11 54.5974 2613.44 69.167C2628.13 83.3897 2639.06 100.214 2646.23 119.64L2586.03 145.657C2578.15 126.231 2566.33 111.315 2550.57 100.908C2534.8 90.1542 2516.53 84.7773 2495.75 84.7773C2483.57 84.7773 2472.82 86.8587 2463.5 91.0214C2454.19 94.8372 2446.84 100.388 2441.47 107.672C2436.45 114.61 2433.95 122.936 2433.95 132.649C2433.95 143.403 2437.53 152.942 2444.69 161.268C2451.86 169.246 2462.79 175.49 2477.48 180L2551.1 202.375C2582.99 212.435 2606.81 226.31 2622.58 244.002C2638.7 261.694 2646.76 283.548 2646.76 309.565C2646.76 331.767 2640.85 351.366 2629.03 368.364C2617.2 385.362 2600.9 398.717 2580.12 408.43C2559.34 418.143 2535.16 423 2507.57 423Z" fill="#F8F8F8"/>
<path d="M2847.66 423C2822.22 423 2798.57 418.49 2776.72 409.471C2755.22 400.452 2736.59 387.964 2720.83 372.006C2705.42 355.702 2694.13 336.797 2686.97 315.289L2747.7 289.792C2757.37 311.994 2771.34 329.512 2789.61 342.347C2807.89 354.835 2828.49 361.079 2851.42 361.079C2864.31 361.079 2875.42 359.171 2884.74 355.355C2894.41 351.193 2901.75 345.642 2906.77 338.704C2912.14 331.767 2914.83 323.441 2914.83 313.728C2914.83 302.281 2911.25 292.914 2904.08 285.63C2897.28 277.998 2886.89 272.101 2872.91 267.938L2796.06 244.002C2764.89 234.636 2741.43 220.587 2725.66 201.854C2709.9 183.122 2702.02 161.094 2702.02 135.771C2702.02 113.57 2707.57 93.97 2718.68 76.9721C2730.14 59.9743 2745.9 46.7923 2765.97 37.4261C2786.39 27.713 2809.68 22.8565 2835.83 22.8565C2859.84 22.8565 2881.87 27.0193 2901.93 35.3447C2922 43.3233 2939.19 54.5974 2953.53 69.167C2968.22 83.3897 2979.14 100.214 2986.31 119.64L2926.12 145.657C2918.24 126.231 2906.41 111.315 2890.65 100.908C2874.88 90.1542 2856.61 84.7773 2835.83 84.7773C2823.65 84.7773 2812.9 86.8587 2803.59 91.0214C2794.27 94.8372 2786.93 100.388 2781.55 107.672C2776.54 114.61 2774.03 122.936 2774.03 132.649C2774.03 143.403 2777.61 152.942 2784.78 161.268C2791.94 169.246 2802.87 175.49 2817.56 180L2891.19 202.375C2923.07 212.435 2946.9 226.31 2962.66 244.002C2978.78 261.694 2986.85 283.548 2986.85 309.565C2986.85 331.767 2980.93 351.366 2969.11 368.364C2957.29 385.362 2940.99 398.717 2920.21 408.43C2899.43 418.143 2875.24 423 2847.66 423Z" fill="#F8F8F8"/>
</svg>
